<?xml version="1.0" encoding="iso-8859-1"?>
<!-- Generator: Adobe Illustrator 17.1.0, SVG Export Plug-In . SVG Version: 6.00 Build 0)  -->
<!DOCTYPE svg PUBLIC "-//W3C//DTD SVG 1.1//EN" "http://www.w3.org/Graphics/SVG/1.1/DTD/svg11.dtd">
<svg version="1.1" id="Capa_1" xmlns="http://www.w3.org/2000/svg" xmlns:xlink="http://www.w3.org/1999/xlink" x="0px" y="0px"
	 viewBox="0 0 254.407 254.407" style="enable-background:new 0 0 254.407 254.407;" xml:space="preserve">
<g>
	<path d="M202.662,201.258c-4.142,0-7.5,3.358-7.5,7.5v30.649H29.473V79.141c0-0.31-0.025-0.613-0.061-0.913l52.621-52.621V67.56
		H62.378c-4.142,0-7.5,3.358-7.5,7.5s3.358,7.5,7.5,7.5h27.155c4.142,0,7.5-3.358,7.5-7.5V15h98.129v99.663
		c0,4.142,3.358,7.5,7.5,7.5s7.5-3.358,7.5-7.5V7.5c0-4.142-3.358-7.5-7.5-7.5H93.614c-0.714,0-1.402,0.106-2.057,0.293
		c-2.586-0.726-5.395-0.028-7.328,1.904l-67.56,67.56c-1.99,1.99-2.625,4.82-1.91,7.349c-0.182,0.648-0.287,1.328-0.287,2.035
		v167.767c0,4.142,3.358,7.5,7.5,7.5h180.689c4.142,0,7.5-3.358,7.5-7.5v-38.149C210.162,204.616,206.804,201.258,202.662,201.258z"
		/>
	<path d="M232.434,138.807h-31.878h-56.416c-3.403-14.512-16.445-25.354-31.98-25.354c-18.116,0-32.854,14.738-32.854,32.854
		s14.738,32.854,32.854,32.854c15.535,0,28.576-10.842,31.98-25.354h48.916v22.771c0,4.142,3.358,7.5,7.5,7.5h31.878
		c4.142,0,7.5-3.358,7.5-7.5v-30.271C239.934,142.165,236.576,138.807,232.434,138.807z M112.16,164.161
		c-9.845,0-17.854-8.009-17.854-17.854c0-9.844,8.009-17.854,17.854-17.854c9.844,0,17.854,8.009,17.854,17.854
		C130.013,156.152,122.004,164.161,112.16,164.161z M224.934,169.079h-16.878v-15.271h16.878V169.079z"/>
</g>
<g>
</g>
<g>
</g>
<g>
</g>
<g>
</g>
<g>
</g>
<g>
</g>
<g>
</g>
<g>
</g>
<g>
</g>
<g>
</g>
<g>
</g>
<g>
</g>
<g>
</g>
<g>
</g>
<g>
</g>
</svg>
